<?xml version="1.0" encoding="utf-8"?>
<!-- Generator: Adobe Illustrator 26.2.0, SVG Export Plug-In . SVG Version: 6.00 Build 0)  -->
<svg version="1.1" id="Calque_1" xmlns="http://www.w3.org/2000/svg" xmlns:xlink="http://www.w3.org/1999/xlink" x="0px" y="0px"
	 viewBox="0 0 100 100" style="enable-background:new 0 0 100 100;" xml:space="preserve">
<g>
	<g>
		<path d="M72.9,39.4l-1.3-1.1c0,0,0.9-3.7,0.9-6.9c0-4.1-5.2-7.6-5.2-7.6h-34c0,0-5.2,3.4-5.2,7.6c0,2.9,0.8,6.3,0.8,6.3l-1.4,1.2
			c-2.6,2.1-4,5.2-4,8.4c0,5.3,3.9,9.8,9.1,10.6l2,0.3l0.1,2.1c0.5,4.6,5.1,9.9,10.3,10.6l1.3,0.3v2.3v15.7h4.8V73.7v-2.3l3-0.3
			c5-0.7,10.6-5.9,11.1-10.7l0.3-2l2.1-0.4c5.1-0.9,8.9-5.3,8.9-10.6C76.5,44.4,75.2,41.5,72.9,39.4z"/>
		<path d="M84.1,47.1c0-4.6-2-8.7-5.2-11.6c0.3-1.3,0.5-2.6,0.5-4c0-0.1,0-0.2,0-0.3c0-0.1,0-0.3,0-0.4c0-0.3,0-0.5-0.1-0.7
			C78.8,22.7,73,16.8,65.7,16C64.4,8.6,58,3,50.2,3C42.5,3,36,8.6,34.8,16c-7.2,1-12.8,6.8-13.4,14.1c0,0.2-0.1,0.4-0.1,0.7
			c0,0.1,0,0.3,0,0.4c0,0.1,0,0.2,0,0.3c0,1.2,0.1,2.3,0.4,3.4c-3.5,2.9-5.8,7.3-5.8,12.2c0,0.1,0,0.2,0,0.3c0,0.1,0,0.2,0,0.3
			c0,7.9,5.3,14.3,12.8,15.5c0.7,7.2,5.7,13,12.9,14v19.5H56V97V77c7.2-1,12.2-5.6,13.7-11.5c0.2-0.8,1.1-1.6,1.2-2.5
			c7.3-1.3,13.3-7.7,13.3-15.4c0-0.1,0-0.2,0-0.2C84.1,47.3,84.1,47.2,84.1,47.1z M67.3,60.7c-0.6,6.2-7.8,12.2-13.7,13.1v18h-8.4
			v-18c-7.2-0.8-12.6-6.8-13.2-13c-6.4-1-11.2-6.5-11.2-13.3c0-4.2,2-8,5-10.5c-0.3-1.1-0.4-3.3-0.4-4.4c0-6.8,5.8-11.3,12-12.2
			c1-6.3,6.1-12.1,12.7-12.1c6.6,0,11.7,5.8,12.7,12.1c6.4,0.8,12.4,5.4,12.4,12.2c0,1.3-0.2,3.6-0.5,4.8c2.8,2.5,4.1,6,4.1,10
			C78.8,54.1,73.6,59.6,67.3,60.7z"/>
	</g>
</g>
</svg>
