<?xml version="1.0" encoding="utf-8"?>
<!-- Generator: Adobe Illustrator 26.2.0, SVG Export Plug-In . SVG Version: 6.00 Build 0)  -->
<svg version="1.1" id="Calque_1" xmlns="http://www.w3.org/2000/svg" xmlns:xlink="http://www.w3.org/1999/xlink" x="0px" y="0px"
	 viewBox="0 0 100 100" style="enable-background:new 0 0 100 100;" xml:space="preserve">
<g>
	<g>
		<path d="M83.6,47c0,7.6-5.5,13.8-12.6,15.2c-0.1,0.8-0.7,1.6-1,2.4c-1.5,5.9-5.8,10.4-12.9,11.4v19.7V97H43V76
			c-8.2-1-12.6-6.7-13.3-13.8c-7.4-1.1-13.2-7.5-13.2-15.2c0-0.1,0-0.2,0-0.3c0-0.1,0-0.2,0-0.3c0-4.8,2.2-9.1,5.7-12
			c-0.2-1.1-0.4-2.2-0.4-3.3c0-0.1,0-0.2,0-0.3c0-0.1,0-0.3,0-0.4c0-0.2,0-0.4,0.1-0.6c0.6-7.2,6.2-12.9,13.2-13.9
			C36.2,8.6,42.5,3,50.2,3c7.6,0,13.9,5.5,15.2,12.8c7.2,0.8,12.9,6.6,13.6,13.9c0,0.2,0.1,0.4,0.1,0.7c0,0.1,0,0.3,0,0.4
			c0,0.1,0,0.2,0,0.3c0,1.3-0.2,2.6-0.5,3.9c3.1,2.8,5.1,6.9,5.1,11.4c0,0.1,0,0.2,0,0.3C83.5,46.8,83.6,46.9,83.6,47z M74.3,36.9
			c0.3-1.2,0.5-3.5,0.5-4.8c0-6.8-5.8-11.3-12.2-12c-1-6.2-6-11.9-12.5-11.9c-6.5,0-11.5,5.7-12.5,11.9c-6.2,0.9-11.8,5.3-11.8,12
			c0,1.1,0.2,3.3,0.5,4.3c-3,2.4-4.9,6.1-4.9,10.3c0,6.6,4.5,12.1,10.9,13c0.6,6.1,7.2,12,13.1,12.8v19.6h9.4V72.7
			c5.9-0.8,12.3-6.8,12.9-12.9c6.2-1.1,11-6.5,11-13C78.6,42.9,77,39.4,74.3,36.9z M67.4,57.2l-2,0.3l-0.2,2
			c-0.4,4.7-5.6,9.8-10.5,10.5l-2.3,0.3v2.3V90h-4.7V72.7v-2.3l-1.9-0.3c-5.1-0.7-10.4-5.9-10.8-10.5l-0.1-2l-2-0.3
			c-5.1-0.8-8.9-5.3-8.9-10.4l52.2,0C76.1,51.9,72.4,56.3,67.4,57.2z"/>
	</g>
</g>
</svg>
