<?xml version="1.0" encoding="utf-8"?>
<!-- Generator: Adobe Illustrator 26.2.0, SVG Export Plug-In . SVG Version: 6.00 Build 0)  -->
<svg version="1.1" id="Calque_1" xmlns="http://www.w3.org/2000/svg" xmlns:xlink="http://www.w3.org/1999/xlink" x="0px" y="0px"
	 viewBox="0 0 100 100" style="enable-background:new 0 0 100 100;" xml:space="preserve">
<g>
	<path d="M59.6,49.8c-2.4,6.7-5.7,14.1-10,21.8c-2.4,1.8-6.6-0.2-5.7-3.8C58.3,42.4,60,24,57.4,20.8c-3.5-2.8-21.9,1.3-27,5.9
		C17.1,41.3,11,57.3,20.3,70.8L3.4,86.5c0,0-1.8,3.3,2.2,8.1c4,4.8,9.2,2.6,9.2,2.6l14.6-17c1.3,0.6,2.7,1.2,4.1,1.7
		c0.4,0.1,0.7,0.3,1.1,0.4c0,0,0,0,0,0c2.3,0.8,4.8,1.3,7.6,1.4c0,0,0,0,0,0c0.9,0,1.8,0,2.7-0.1c0.4,0,0.8-0.1,1.2-0.1
		c0.3,0,0.5-0.1,0.8-0.1c0.3-0.1,0.6-0.1,1-0.2c9.5-1.9,19.2-8.5,28.5-17.5c7.9-9.3,10-22.8,7.6-25.3C80.1,38.1,62.5,47.6,59.6,49.8
		z"/>
	<path d="M93.5,6.6c-8.4-8.5-33.1-3.6-51,9.1c8.2-2,16.9-2.9,19.8,0.1c2.9,2.9,3.3,12,0.1,24.7c8.5-4.2,22-9.9,26.6-5.4
		c1.7,1.7,2.2,4.7,1.9,8.7c0,0.1,0,0.3,0,0.5C97.7,28.8,99.2,12.4,93.5,6.6z"/>
</g>
</svg>
