<?xml version="1.0" encoding="utf-8"?>
<!-- Generator: Adobe Illustrator 26.2.0, SVG Export Plug-In . SVG Version: 6.00 Build 0)  -->
<svg version="1.1" id="Calque_1" xmlns="http://www.w3.org/2000/svg" xmlns:xlink="http://www.w3.org/1999/xlink" x="0px" y="0px"
	 viewBox="0 0 100 100" style="enable-background:new 0 0 100 100;" xml:space="preserve">
<path d="M98,50c0-6.9-9.5-12.5-21.3-12.5c-3,0-5.4,0.4-7.2,1.1c1.5-1.2,3-3.1,4.5-5.8c5.8-10.2,5.6-21.3-0.4-24.7
	c-6-3.4-15.5,2.2-21.3,12.4c-1.2,2.2-2,4.1-2.4,5.8c-0.4-1.7-1.2-3.6-2.4-5.8C41.8,10.3,32.2,4.8,26.2,8.2c-6,3.4-6.1,14.4-0.4,24.7
	c1.5,2.6,3,4.5,4.4,5.7c-1.8-0.6-4.1-1-7-1C11.5,37.5,2,43.1,2,50c0,6.9,9.5,12.5,21.3,12.5c3,0,5.4-0.4,7.2-1.1
	c-1.5,1.2-3,3.1-4.5,5.8c-5.8,10.2-5.6,21.3,0.4,24.7c6,3.4,15.5-2.2,21.3-12.4c1.2-2.2,2-4.1,2.4-5.8c0.4,1.7,1.2,3.6,2.4,5.8
	c5.8,10.2,15.3,15.8,21.3,12.4c6-3.4,6.1-14.4,0.4-24.7c-1.5-2.6-3-4.5-4.4-5.7c1.8,0.6,4.1,1,7,1C88.5,62.5,98,56.9,98,50z
	 M50.2,59.9c-5.3,0-9.7-4.3-9.7-9.7c0-5.3,4.3-9.7,9.7-9.7c5.3,0,9.7,4.3,9.7,9.7C59.9,55.5,55.5,59.9,50.2,59.9z"/>
</svg>
