<?xml version="1.0" encoding="utf-8"?>
<!-- Generator: Adobe Illustrator 26.2.0, SVG Export Plug-In . SVG Version: 6.00 Build 0)  -->
<svg version="1.1" id="Calque_1" xmlns="http://www.w3.org/2000/svg" xmlns:xlink="http://www.w3.org/1999/xlink" x="0px" y="0px"
	 viewBox="0 0 100 100" style="enable-background:new 0 0 100 100;" xml:space="preserve">
<path d="M99.1,2.5c0,0-46.8-3.1-67.9,18.1c-15.8,15.8-15,43-13.8,55.8L2.1,89.6c0,0-2.7,3.3-0.4,6.3c2.8,3.5,6.5,0.8,6.5,0.8
	l15.6-13.7C35,84.2,64,87.5,81,70.5C102.2,49.3,99.1,2.5,99.1,2.5z M92.1,23.4c0,0-4.5,2.8-14.7,2C73.9,29,69.9,33,65.8,37.2
	l20.6-0.1c0,0-11.6,3.1-22.7,2.1c-3.8,3.8-7.6,7.6-11.4,11.4l28.5,0.2c0,0-18.9,3.4-31,2.2c-4,3.9-7.9,7.6-11.5,11l36.8,0.5
	c0,0-26.9,3.8-39.8,2.2c-4.9,4.5-9.1,8.1-12,10.1c1.9-3.1,5.8-7.5,10.7-12.7c-0.7-13.5,3.4-37.9,3.4-37.9L37.2,61
	c3.4-3.4,7.1-7.1,11-10.9C47.7,38.1,51.2,21,51.2,21l-0.5,26.6c3.8-3.6,7.6-7.2,11.4-10.7c-0.3-10.6,2.8-21.1,2.8-21.1L64.3,35
	c4.2-3.8,8.2-7.5,11.8-10.8c-0.3-9.4,2.5-13.5,2.5-13.5l-0.7,11.9c8.6-7.8,14.8-13.1,14.8-13.1S87.1,15.4,79,23.8L92.1,23.4z"/>
</svg>
