<?xml version="1.0" encoding="utf-8"?>
<!-- Generator: Adobe Illustrator 25.0.1, SVG Export Plug-In . SVG Version: 6.00 Build 0)  -->
<svg version="1.1" id="Calque_1" xmlns="http://www.w3.org/2000/svg" xmlns:xlink="http://www.w3.org/1999/xlink" x="0px" y="0px"
	 viewBox="0 0 276 332" style="enable-background:new 0 0 276 332;" xml:space="preserve">
<style type="text/css">
	.st0{fill:#8E3414;}
	.st1{fill:#FFFFFF;}
</style>
<path class="st0" d="M138.5,5c68.8,0,131.1,52.7,131.1,134.3c0,52.1-40.1,113.4-120.2,184c-6.2,5.4-15.6,5.4-21.8,0
	c-80-70.6-120.2-131.9-120.2-184C7.4,57.7,69.7,5,138.5,5z"/>
<circle class="st1" cx="138.5" cy="136.1" r="98.3"/>
<g>
	<path class="st0" d="M135,201.6c-2.1-0.2-4.1-0.5-6.2-0.7c-6-0.8-11.7-2.5-17.3-4.8c-9.2-3.9-17-9.7-23.6-17.1
		c-2.8-3.1-5-6.7-7.5-10c-0.7-1-0.7-2.2-0.2-3.3c6.3-13.1,16.5-21.2,30.9-24.1c2.8-0.6,5,0,7.3,1.6c12.1,8.3,28.2,8.3,40.2,0
		c3-2.1,5.9-1.9,9.1-1.2c8,1.9,14.9,5.7,20.6,11.6c3.4,3.5,6.3,7.4,8.3,11.9c0.5,1.2,0.5,2.2-0.2,3.4c-6.6,10.8-15.4,19.3-26.6,25.2
		c-7.4,3.9-15.4,6.4-23.8,7.3c-1.4,0.2-2.9,0.3-4.3,0.5C139.6,201.6,137.3,201.6,135,201.6z"/>
	<path class="st0" d="M141.1,70.6c2,0.4,4,0.6,5.9,1.1c12.7,3.7,21.1,11.8,24.5,24.6c4.8,18.1-6.4,36.6-24.8,41.2
		c-18,4.6-36.5-6.6-41.2-24.8c-4.6-18,6.6-36.6,24.8-41.1c1.8-0.5,3.8-0.7,5.6-1.1C137.7,70.6,139.4,70.6,141.1,70.6z"/>
</g>
</svg>
